HIERARCHY
ROOT SpineBase
{
  OFFSET 0.000000 0.000000 0.000000
  CHANNELS 6 Xposition Yposition Zposition Zrotation Xrotation Yrotation
  JOINT SpineMid
  {
    OFFSET 0.000000 27.029603 0.000000
    CHANNELS 3 Zrotation Xrotation Yrotation
    JOINT SpineShoulder
    {
      OFFSET 0.057072 20.172057 -0.655353
      CHANNELS 3 Zrotation Xrotation Yrotation
      JOINT Neck
      {
        OFFSET -0.002849 6.697250 -0.487649
        CHANNELS 3 Zrotation Xrotation Yrotation
        JOINT Head
        {
          OFFSET -2.724547 11.447189 1.233742
          CHANNELS 3 Zrotation Xrotation Yrotation
          End Site
          {
            OFFSET 0 0 0
          }
        }
      }
      JOINT ShoulderLeft
      {
        OFFSET -12.566057 -3.660274 4.051818
        CHANNELS 3 Zrotation Xrotation Yrotation
        JOINT ElbowLeft
        {
          OFFSET -1.130395 -24.534279 2.830281
          CHANNELS 3 Zrotation Xrotation Yrotation
          JOINT WristLeft
          {
            OFFSET -1.942590 -19.675053 -6.497456
            CHANNELS 3 Zrotation Xrotation Yrotation
            JOINT HandLeft
            {
              OFFSET -1.003709 -3.708931 -2.352732
              CHANNELS 3 Zrotation Xrotation Yrotation
              JOINT HandTipLeft
              {
                OFFSET -1.964755 -3.102338 -3.762189
                CHANNELS 3 Zrotation Xrotation Yrotation
                End Site
                {
                  OFFSET 0 0 0
                }
              }
              JOINT ThumbLeft
              {
                OFFSET 4.440649 0.013442 -0.384162
                CHANNELS 3 Zrotation Xrotation Yrotation
                End Site
                {
                  OFFSET 0 0 0
                }
              }
            }
          }
        }
      }
      JOINT ShoulderRight
      {
        OFFSET 11.109341 -2.130106 -7.249812
        CHANNELS 3 Zrotation Xrotation Yrotation
        JOINT ElbowRight
        {
          OFFSET 5.386763 -22.415658 -2.029274
          CHANNELS 3 Zrotation Xrotation Yrotation
          JOINT WristRight
          {
            OFFSET -0.741383 -21.320924 -6.437239
            CHANNELS 3 Zrotation Xrotation Yrotation
            JOINT HandRight
            {
              OFFSET -1.002219 -4.590337 -0.609100
              CHANNELS 3 Zrotation Xrotation Yrotation
              JOINT HandTipRight
              {
                OFFSET -1.285010 -4.186534 -0.846534
                CHANNELS 3 Zrotation Xrotation Yrotation
                End Site
                {
                  OFFSET 0 0 0
                }
              }
              JOINT ThumbRight
              {
                OFFSET -2.770327 1.106143 0.444328
                CHANNELS 3 Zrotation Xrotation Yrotation
                End Site
                {
                  OFFSET 0 0 0
                }
              }
            }
          }
        }
      }
    }
  }
  JOINT HipLeft
  {
    OFFSET -5.639789 0.281715 -1.247365
    CHANNELS 3 Zrotation Xrotation Yrotation
    JOINT KneeLeft
    {
      OFFSET 6.426483 -30.690999 1.830509
      CHANNELS 3 Zrotation Xrotation Yrotation
      JOINT AnkleLeft
      {
        OFFSET 5.519755 -33.613012 6.415644
        CHANNELS 3 Zrotation Xrotation Yrotation
        JOINT FootLeft
        {
          OFFSET 3.152438 -6.024443 -3.956576
          CHANNELS 3 Zrotation Xrotation Yrotation
          End Site
          {
            OFFSET 0 0 0
          }
        }
      }
    }
  }
  JOINT HipRight
  {
    OFFSET 5.212469 1.283856 -4.782335
    CHANNELS 3 Zrotation Xrotation Yrotation
    JOINT KneeRight
    {
      OFFSET 5.762947 -26.384441 -1.836468
      CHANNELS 3 Zrotation Xrotation Yrotation
      JOINT AnkleRight
      {
        OFFSET 4.937250 -37.523707 6.129097
        CHANNELS 3 Zrotation Xrotation Yrotation
        JOINT FootRight
        {
          OFFSET -4.000963 -5.753730 1.970074
          CHANNELS 3 Zrotation Xrotation Yrotation
          End Site
          {
            OFFSET 0 0 0
          }
        }
      }
    }
  }
}
MOTION
Frames: 14
Frame Time: 0.033333
63.600514 67.381173 391.229171 4.928425 -6.750587 12.512827 0.488881 -0.045010 -12.058921 0.280065 -0.055529 0.201457 3.306133 -13.557000 -5.406923 0.000000 0.000000 0.000000 -10.039068 -8.127043 0.054526 -2.511689 14.762995 3.275020 32.780233 -21.986374 -10.070676 -2.295215 -14.199597 15.557122 0.000000 0.000000 0.000000 0.000000 0.000000 0.000000 -1.498203 3.590945 -1.581634 2.312935 -3.142475 -0.498091 -1.397263 3.722705 1.539100 15.829700 -4.316177 -1.724939 0.000000 0.000000 0.000000 0.000000 0.000000 0.000000 -32.464607 13.746089 -8.063421 15.254107 4.486220 0.402164 -26.927039 1.320883 37.349464 0.000000 0.000000 0.000000 3.825915 16.051715 -11.724534 6.414644 -9.334933 1.682625 27.523444 45.578922 -58.939407 0.000000 0.000000 0.000000
61.544675 66.859618 391.266010 5.373867 -6.373065 12.324350 0.283150 -0.158259 -11.835059 0.137876 -0.082727 0.212645 3.424641 -13.161226 -5.297296 0.000000 0.000000 0.000000 -10.049761 -8.355995 0.044056 -1.916656 16.147655 2.795059 29.380484 -16.172214 -10.776230 0.634081 -19.701513 17.143159 0.000000 0.000000 0.000000 0.000000 0.000000 0.000000 -2.041400 4.272822 -1.325116 3.007094 -2.894809 -0.871794 -1.368446 2.276498 1.741694 16.041490 -0.896555 -3.604485 0.000000 0.000000 0.000000 0.000000 0.000000 0.000000 -31.908724 13.437961 -8.089686 15.793285 4.185672 0.526048 -30.462014 -4.090549 34.630769 0.000000 0.000000 0.000000 3.630260 15.907273 -11.527039 8.469480 -9.630178 2.452106 29.395320 38.595270 -48.825295 0.000000 0.000000 0.000000
59.201286 66.482632 391.327713 5.250563 -6.389370 12.807525 0.399792 -0.100602 -12.334974 0.435788 -0.034343 0.214782 4.491864 -11.713740 -5.096332 0.000000 0.000000 0.000000 -9.412778 -9.134675 0.156885 -1.007165 18.512480 1.640361 27.009251 -16.860409 -9.038637 1.348425 -19.569635 15.607418 0.000000 0.000000 0.000000 0.000000 0.000000 0.000000 -2.435026 4.848713 -1.162604 3.778503 -2.387077 -1.298696 -3.860027 1.238085 2.311357 16.579060 2.386929 -5.232370 0.000000 0.000000 0.000000 0.000000 0.000000 0.000000 -29.892732 13.901380 -8.609900 16.222517 3.739809 0.701018 -32.616719 -0.878629 36.587301 0.000000 0.000000 0.000000 4.319635 16.189131 -12.084759 10.436595 -10.235078 3.210229 30.215509 34.879795 -43.320675 0.000000 0.000000 0.000000
56.611955 66.346747 391.573041 3.604171 -6.978995 12.894357 1.075542 0.012666 -12.576671 0.307360 -0.008192 0.168787 10.146076 -9.033938 -5.103709 0.000000 0.000000 0.000000 -7.707228 -8.825942 0.279339 1.990575 22.177798 -0.810702 26.990816 -26.880397 -3.125647 -2.373620 -10.111267 9.123861 0.000000 0.000000 0.000000 0.000000 0.000000 0.000000 -2.284308 5.317436 -0.923520 3.691141 -1.634329 -1.190231 -3.216100 0.660909 1.979015 13.691343 2.678718 -4.498363 0.000000 0.000000 0.000000 0.000000 0.000000 0.000000 -25.299637 14.560135 -8.903620 15.106226 2.626778 0.584994 -34.463941 1.297648 38.200023 0.000000 0.000000 0.000000 6.723718 17.705312 -12.325885 12.458829 -11.747078 4.055267 30.225999 34.821768 -44.670223 0.000000 0.000000 0.000000
54.379478 66.395289 391.811003 2.582381 -7.479746 14.080038 1.238788 0.183766 -13.858703 0.234756 -0.010149 0.129918 14.537641 -7.559532 -5.332044 0.000000 0.000000 0.000000 -7.118403 -9.038176 0.273310 4.076360 23.653166 -2.008348 26.517646 -31.379671 0.216879 -2.690322 -6.707124 6.956371 0.000000 0.000000 0.000000 0.000000 0.000000 0.000000 -1.653964 5.464862 -0.870867 1.649541 -1.220355 -0.498633 0.714908 1.394317 0.708736 11.178953 2.252172 -3.765048 0.000000 0.000000 0.000000 0.000000 0.000000 0.000000 -21.450907 15.693374 -10.161300 14.416278 1.474039 0.514396 -34.911512 5.981858 40.146161 0.000000 0.000000 0.000000 8.032000 19.214285 -13.458788 15.124466 -12.769384 4.954673 27.969620 38.106239 -52.203766 0.000000 0.000000 0.000000
52.350853 66.595004 391.950597 2.061238 -7.908108 14.674446 1.435109 0.410921 -14.510948 0.141813 -0.021807 0.112781 17.197356 -5.895246 -5.482952 0.000000 0.000000 0.000000 -5.460316 -10.153620 0.479768 2.868814 25.096058 -2.041830 24.669730 -37.817514 5.452159 -2.143614 1.642170 0.479677 0.000000 0.000000 0.000000 0.000000 0.000000 0.000000 -0.990460 5.166111 -1.001972 -1.222490 -0.604981 0.445848 0.490095 1.838518 0.181964 12.683987 -0.310302 -2.690221 0.000000 0.000000 0.000000 0.000000 0.000000 0.000000 -18.262758 16.137445 -11.006743 13.154858 0.993729 0.460467 -36.227326 7.329383 41.107156 0.000000 0.000000 0.000000 7.281233 21.142688 -13.511407 19.492890 -13.710436 6.165106 20.892420 47.038437 -67.165760 0.000000 0.000000 0.000000
50.186981 66.795068 392.227244 1.865419 -8.367349 15.381447 1.346903 0.624767 -15.232753 0.073159 0.001606 0.096426 17.783317 -4.881138 -5.527293 0.000000 0.000000 0.000000 -4.346638 -11.333158 0.642104 0.888549 25.402852 -1.118901 20.533839 -41.484864 8.862374 0.238330 10.226400 -6.262896 0.000000 0.000000 0.000000 0.000000 0.000000 0.000000 -0.054626 4.659687 -1.264186 -4.831119 -0.014991 1.694343 0.468694 2.173371 -0.343860 10.842519 -2.120145 -1.325991 0.000000 0.000000 0.000000 0.000000 0.000000 0.000000 -14.592601 16.714735 -12.003972 10.879579 0.401956 0.256659 -37.050392 6.582083 40.472944 0.000000 0.000000 0.000000 7.040944 23.143355 -13.826561 23.033114 -15.448756 7.484248 20.511088 48.811621 -71.646727 0.000000 0.000000 0.000000
48.255745 67.120102 392.458793 1.848611 -8.868104 16.071589 1.405042 0.681165 -15.923875 0.018271 -0.039352 0.096043 17.160484 -3.538745 -5.534140 0.000000 0.000000 0.000000 -3.699636 -11.821503 0.787090 -1.903168 22.394013 0.683542 11.735747 -38.250192 8.903557 4.750451 16.803936 -10.855852 0.000000 0.000000 0.000000 0.000000 0.000000 0.000000 0.905720 4.957298 -1.491093 -8.199037 -0.089725 2.649435 -2.611575 0.838396 0.060708 13.833079 -4.384530 -0.851283 0.000000 0.000000 0.000000 0.000000 0.000000 0.000000 -11.913464 17.188807 -12.930740 9.456517 0.090574 0.176712 -37.083893 3.124173 36.913498 0.000000 0.000000 0.000000 5.926848 24.841196 -13.938504 26.893709 -16.702060 8.759860 18.704047 50.870041 -74.883666 0.000000 0.000000 0.000000
46.441688 67.515414 392.639136 2.049950 -9.330792 17.268730 1.340815 0.625234 -17.090542 -0.037488 -0.145637 0.102401 17.019370 -1.746019 -5.641014 0.000000 0.000000 0.000000 -2.963745 -12.655089 0.991030 -6.874238 18.568971 3.874037 3.491611 -26.480427 7.507350 10.261542 13.999495 -11.619982 0.000000 0.000000 0.000000 0.000000 0.000000 0.000000 0.654424 5.073904 -1.584134 -9.989397 0.630299 3.461070 -3.557692 0.177247 -0.079122 12.243766 -6.783305 0.324641 0.000000 0.000000 0.000000 0.000000 0.000000 0.000000 -9.126313 17.566490 -14.448561 7.557205 -0.057686 0.030337 -35.192817 7.091468 37.257666 0.000000 0.000000 0.000000 5.082803 26.600583 -14.594243 29.992326 -18.636915 9.937582 16.315339 53.243676 -76.429029 0.000000 0.000000 0.000000
44.921297 67.831133 392.648707 2.320695 -9.433880 18.582192 1.173460 0.445061 -18.360579 -0.043858 -0.274165 0.110987 16.815432 -0.828857 -5.732115 0.000000 0.000000 0.000000 -2.812825 -13.553680 1.109326 -10.617814 15.189798 6.498117 -3.844282 -11.606968 9.204425 18.161737 1.410416 -13.584372 0.000000 0.000000 0.000000 0.000000 0.000000 0.000000 1.274625 5.334346 -1.793776 -12.256192 0.838655 4.122439 -5.876470 1.535331 -0.129796 12.415251 -9.521850 1.178284 0.000000 0.000000 0.000000 0.000000 0.000000 0.000000 -7.625831 17.846234 -15.930314 7.060323 -0.394103 0.019723 -36.178171 8.458743 38.253040 0.000000 0.000000 0.000000 3.904803 27.591356 -15.331429 32.336585 -19.867947 10.623177 18.942436 56.853270 -84.803747 0.000000 0.000000 0.000000
43.566633 68.045282 392.530206 2.471721 -9.465667 19.322578 0.916136 0.247711 -19.065864 -0.030092 -0.395050 0.111723 17.375191 0.195632 -5.913297 0.000000 0.000000 0.000000 -3.066704 -15.022825 1.164428 -12.365334 12.520301 8.221143 -8.311276 4.221940 11.683731 20.863396 -12.920361 -8.615534 0.000000 0.000000 0.000000 0.000000 0.000000 0.000000 2.674015 6.150101 -2.033393 -15.188518 0.597901 4.629036 -6.254349 1.642267 -0.387292 13.597134 -11.495743 1.577735 0.000000 0.000000 0.000000 0.000000 0.000000 0.000000 -6.557293 18.132007 -16.758627 7.107916 -1.226264 0.002349 -34.672984 11.276499 37.610690 0.000000 0.000000 0.000000 2.058063 29.240143 -15.103080 34.500003 -21.320224 11.139133 19.874046 56.557820 -84.116796 0.000000 0.000000 0.000000
42.622888 68.127069 392.173733 3.225538 -9.145601 19.413506 0.540922 -0.021313 -19.054985 0.006114 -0.392743 0.132325 16.973396 0.368141 -5.941057 0.000000 0.000000 0.000000 -5.124737 -15.446684 0.934003 -12.070454 10.538711 9.010988 -11.992694 10.618173 15.098852 24.440889 -23.632231 -6.754490 0.000000 0.000000 0.000000 0.000000 0.000000 0.000000 2.762891 6.913307 -2.035593 -16.146169 0.281932 4.507778 -6.904778 0.470045 -0.349512 15.432222 -10.931427 1.121678 0.000000 0.000000 0.000000 0.000000 0.000000 0.000000 -7.371750 18.246194 -16.689979 8.298864 -2.028934 0.162783 -37.212221 6.426204 35.477851 0.000000 0.000000 0.000000 -1.025899 30.043678 -14.086583 35.666773 -22.514610 11.015404 13.663891 56.051119 -74.426823 0.000000 0.000000 0.000000
41.391267 68.283442 391.808341 2.514945 -9.248496 20.317661 0.395478 -0.237573 -20.025981 0.658337 -0.416952 0.094865 20.434008 2.191232 -6.627790 0.000000 0.000000 0.000000 -5.007029 -13.808925 0.911337 -12.133298 9.293022 8.835537 -15.397815 12.763308 17.651845 24.653873 -26.733546 -4.538677 0.000000 0.000000 0.000000 0.000000 0.000000 0.000000 3.353279 7.851021 -2.072233 -15.982056 0.231620 4.110296 -7.822605 1.999884 -0.318661 17.604356 -13.743485 1.912272 0.000000 0.000000 0.000000 0.000000 0.000000 0.000000 -5.555370 18.338183 -17.840571 8.714837 -2.974401 0.229933 -37.150063 9.208695 36.095402 0.000000 0.000000 0.000000 -0.682100 29.944442 -14.931024 34.393229 -22.934705 10.016265 9.833979 54.714990 -66.411462 0.000000 0.000000 0.000000
40.354969 68.471532 391.354140 1.359816 -9.449857 20.802689 1.061547 -0.458138 -20.672571 0.284081 -0.281114 0.073369 24.951163 2.983707 -7.376571 0.000000 0.000000 0.000000 -4.669241 -10.641115 0.739751 -10.357855 9.221900 7.429979 -18.697051 8.463889 18.860552 25.666371 -28.171804 -4.950937 0.000000 0.000000 0.000000 0.000000 0.000000 0.000000 4.003848 8.317530 -1.965886 -15.260931 0.154485 3.737497 -4.578365 4.137793 -1.030661 17.817659 -16.025161 3.174910 0.000000 0.000000 0.000000 0.000000 0.000000 0.000000 -3.701577 18.411361 -18.569558 9.499105 -4.165406 0.333684 -37.106076 14.467911 38.182277 0.000000 0.000000 0.000000 0.330929 29.460218 -15.602118 31.457276 -22.808633 8.285808 0.815519 51.402831 -52.665317 0.000000 0.000000 0.000000
